<?xml version="1.0" encoding="UTF-8" standalone="no"?>
<!-- Generator: Adobe Illustrator 19.2.1, SVG Export Plug-In . SVG Version: 6.00 Build 0)  -->

<svg
   xmlns:dc="http://purl.org/dc/elements/1.1/"
   xmlns:cc="http://creativecommons.org/ns#"
   xmlns:rdf="http://www.w3.org/1999/02/22-rdf-syntax-ns#"
   xmlns:svg="http://www.w3.org/2000/svg"
   xmlns="http://www.w3.org/2000/svg"
   xmlns:sodipodi="http://sodipodi.sourceforge.net/DTD/sodipodi-0.dtd"
   xmlns:inkscape="http://www.inkscape.org/namespaces/inkscape"
   version="1.1"
   x="0px"
   y="0px"
   viewBox="0 0 39.990002 40.000069"
   xml:space="preserve"
   id="svg3397"
   inkscape:version="0.91 r13725"
   sodipodi:docname="udacity-logo.svg"
   width="39.990002"
   height="40.000069"><metadata
     id="metadata3437"><rdf:RDF><cc:Work
         rdf:about=""><dc:format>image/svg+xml</dc:format><dc:type
           rdf:resource="http://purl.org/dc/dcmitype/StillImage" /><dc:title></dc:title></cc:Work></rdf:RDF></metadata><defs
     id="defs3435" /><sodipodi:namedview
     pagecolor="#ffffff"
     bordercolor="#666666"
     borderopacity="1"
     objecttolerance="10"
     gridtolerance="10"
     guidetolerance="10"
     inkscape:pageopacity="0"
     inkscape:pageshadow="2"
     inkscape:window-width="1855"
     inkscape:window-height="951"
     id="namedview3433"
     showgrid="false"
     fit-margin-top="0"
     fit-margin-left="0"
     fit-margin-right="0"
     fit-margin-bottom="0"
     inkscape:zoom="10.175"
     inkscape:cx="19.995"
     inkscape:cy="20.000067"
     inkscape:window-x="65"
     inkscape:window-y="24"
     inkscape:window-maximized="1"
     inkscape:current-layer="svg3397" /><style
     type="text/css"
     id="style3399">
	.st0{fill:#2D3C49;}
	.st1{fill:#FFFFFF;}
	.st2{opacity:0;fill:#E5E5E5;}
	.st3{fill:#02B3E4;}
	.st4{opacity:0;fill:#FFFFFF;}
</style><g
     id="_x31_20-slate"
     transform="translate(-20.005,-20)" /><g
     id="_x34_80-wordmark-white"
     transform="translate(-20.005,-20)" /><g
     id="_x34_80-wordmark-blue"
     transform="translate(-20.005,-20)" /><g
     id="_x34_80-wordmark-slate"
     transform="translate(-20.005,-20)" /><g
     id="_x35_2-slate"
     transform="translate(-20.005,-20)" /><g
     id="_x31_20-blue"
     transform="translate(-20.005,-20)" /><g
     id="_x31_20-white"
     transform="translate(-20.005,-20)" /><g
     id="_x32_40-white"
     transform="translate(-20.005,-20)" /><g
     id="_x32_40-blue"
     transform="translate(-20.005,-20)" /><g
     id="_x32_40-slate"
     transform="translate(-20.005,-20)" /><g
     id="_x34_80-slate"
     transform="translate(-20.005,-20)" /><g
     id="_x34_80-blue"
     transform="translate(-20.005,-20)" /><g
     id="_x34_80-white"
     transform="translate(-20.005,-20)" /><g
     id="_x32_50-vert-white"
     transform="translate(-20.005,-20)" /><g
     id="_x32_50-vert-slate"
     transform="translate(-20.005,-20)" /><g
     id="_x32_50-vert-blue"
     transform="translate(-20.005,-20)" /><g
     id="_x35_00-vert-slate"
     transform="translate(-20.005,-20)" /><g
     id="_x35_00-vert-blue"
     transform="translate(-20.005,-20)" /><g
     id="_x35_00-vert-white"
     transform="translate(-20.005,-20)" /><g
     id="_x31_000-vert-slate"
     transform="translate(-20.005,-20)" /><g
     id="_x31_000-vert-blue"
     transform="translate(-20.005,-20)" /><g
     id="_x31_000-vert-white_1_"
     transform="translate(-20.005,-20)" /><g
     id="_x38_0-mark-white"
     transform="translate(-20.005,-20)"><path
       id="mark_28_"
       class="st3"
       d="m 33.352,20 -13.347,7.656 0.001,17.635 0,0 c -0.025,8.099 6.521,14.684 14.62,14.709 2.678,0.008 5.191,-0.702 7.355,-1.949 l 0,0 10.812,-6.212 c 4.265,-2.213 7.185,-6.663 7.201,-11.801 l 10e-4,-18.417 0,0 0,0 -2.646,-1.548 -11.342,6.126 0.001,10e-4 0,0 -0.004,19.172 c -0.002,0.816 -0.061,1.63 -0.225,2.42 -0.16,0.769 -0.397,1.524 -0.705,2.246 -0.08,0.187 -0.165,0.372 -0.254,0.555 -0.448,0.003 -2.859,-0.871 -4.186,-1.768 -0.564,-0.384 -1.095,-0.824 -1.576,-1.309 -0.482,-0.485 -0.919,-1.018 -1.299,-1.584 -0.383,-0.571 -0.712,-1.181 -0.977,-1.814 -0.27,-0.643 -0.477,-1.316 -0.614,-2 -0.142,-0.703 -0.173,-1.428 -0.171,-2.153 l 0,0 L 36.006,21.549 33.352,20 Z m 6.406,36.22 c -0.724,0.304 -1.733,0.703 -2.502,0.858 -0.791,0.159 -1.52,0.239 -2.336,0.236 -0.816,-0.002 -1.63,-0.087 -2.42,-0.251 -0.769,-0.16 -1.525,-0.397 -2.247,-0.705 -0.709,-0.303 -1.394,-0.677 -2.034,-1.112 -1.651,-1.16 -2.503,-2.165 -3.234,-3.254 -0.431,-0.643 -0.801,-1.329 -1.1,-2.041 -0.304,-0.724 -0.536,-1.481 -0.691,-2.251 -0.159,-0.791 -0.192,-1.606 -0.19,-2.422 l 0.003,-16.096 9.997,-6.109 0,16.878 -10e-4,0 c -0.02,6.413 4.703,11.767 10.733,13.06 -0.236,0.282 -0.407,0.554 -0.668,0.813 -1.121,1.138 -2.063,1.867 -3.31,2.396 z M 56.831,42.212 c -0.142,0.683 -0.353,1.355 -0.626,1.997 -0.269,0.631 -0.602,1.239 -0.988,1.808 -0.384,0.564 -1.577,2.054 -3.224,2.995 -1.647,0.941 -3.082,1.212 -4.021,1.391 0.606,-1.6 1.027,-3.208 1.033,-5.02 l 0,0 0,-17.637 0,0 8,-4.594 0.003,16.878 c -0.003,0.725 -0.031,1.48 -0.177,2.182 z"
       inkscape:connector-curvature="0"
       style="fill:#02b3e4" /></g><g
     id="_x38_0-mark-blue"
     transform="translate(-20.005,-20)" /><g
     id="_x38_0-mark-slate"
     transform="translate(-20.005,-20)" /><g
     id="_x31_60-mark-blue"
     transform="translate(-20.005,-20)" /><g
     id="_x31_60-mark-white"
     transform="translate(-20.005,-20)" /><g
     id="_x31_60-mark-slate"
     transform="translate(-20.005,-20)" /><g
     id="_x33_20-mark-blue"
     transform="translate(-20.005,-20)" /><g
     id="_x33_20-mark-white"
     transform="translate(-20.005,-20)" /><g
     id="_x33_20-mark-slate"
     transform="translate(-20.005,-20)" /></svg>